<svg width="80" height="32" viewBox="0 0 80 32" fill="none" xmlns="http://www.w3.org/2000/svg">
<path d="M11.9619 10.1411C13.1581 8.12257 16.0499 9.01185 18.4111 10.5298C19.0321 10.929 20.1461 11.8292 21.2148 13.1099C22.0699 13.0158 23.3536 13.1739 24.04 14.4067C24.4177 15.0853 22.921 14.9377 22.9287 15.7095C23.7164 17.3021 24.1826 19.1728 23.8691 21.2202C23.2911 24.9955 20.2505 27.6389 17.5146 27.9487C14.3747 28.3042 11.2339 26.7901 10.2246 26.7153C9.4173 26.6559 8.54242 27.6373 8.20605 27.9487V19.8003C8.2168 19.8285 9.10086 22.1413 10.5244 24.0239C11.4399 25.2344 13.6813 26.9273 17.0312 25.8677C19.3591 25.1313 20.6016 23.0301 20.25 21.2202C19.8955 19.3954 18.9208 18.103 17.7197 17.1021C17.7089 17.0985 17.6965 17.0943 17.6836 17.0874C16.1669 16.1088 15.96 17.4106 15.3369 17.0874C15.1048 16.9662 15.11 16.1604 15.1982 15.396C12.2206 13.3641 11.5129 11.2294 11.9619 10.1411Z" fill="white"/>
<path d="M12.273 17.7737C14.7942 19.7394 17.5163 20.3208 17.2432 20.3208C16.5209 20.3208 14.3425 19.7162 11.7921 18.1622C8.46698 16.1361 7.70099 13.4441 7.93205 10.4755C8.22229 6.74653 11.2642 4.36663 14.0001 4.05689C17.1401 3.70142 20.2803 5.21569 21.2895 5.29045C22.097 5.35025 22.9717 4.3684 23.3081 4.0569L23.3081 10.2394C23.3081 10.2394 22.6632 8.84448 21.2895 7.29694C20.2918 6.17292 17.5336 4.82699 14.0001 5.48249C10.1705 6.19294 9.33312 9.91095 9.33312 11.4924C9.33312 13.0739 9.58333 15.6766 12.273 17.7737Z" fill="white"/>
<circle cx="16.0873" cy="10.931" r="0.485946" transform="rotate(-180 16.0873 10.931)" fill="#151515"/>
<mask id="mask0_70_820" style="mask-type:alpha" maskUnits="userSpaceOnUse" x="8" y="8" width="16" height="21">
<path d="M16.0082 15.9119C12.3493 13.7351 11.4751 11.3213 11.9625 10.1405C13.1586 8.12192 16.0508 9.01126 18.412 10.5292C19.982 11.5385 24.7072 15.7488 23.8696 21.22C23.2915 24.9954 20.251 27.6387 17.5151 27.9485C14.3751 28.3039 11.235 26.7897 10.2257 26.7149C9.41828 26.6551 8.54358 27.637 8.20715 27.9485L8.20715 19.7995C8.20715 19.7995 9.09243 22.1293 10.5247 24.0235C11.4401 25.234 13.6817 26.9268 17.0319 25.8671C19.3597 25.1307 20.6026 23.0299 20.251 21.22C19.738 18.5788 17.9256 17.0526 16.0082 15.9119Z" fill="white"/>
</mask>
<g mask="url(#mask0_70_820)">
<path d="M17.8368 11.3466C17.966 11.2133 18.0612 10.5406 18.0927 10.221C21.4289 11.0306 23.8497 13.6463 24.7866 14.9584C25.7234 16.2705 24.0827 22.4372 23.1943 23.3538C22.3058 24.2704 21.0385 21.9377 21.1028 21.6768C21.1671 21.4159 21.4237 21.2067 21.3748 20.7014C21.3259 20.1961 21.24 19.9513 21.5491 19.6045C21.8583 19.2578 22.0143 18.7356 21.7088 18.4394C21.4032 18.1433 20.8574 17.3449 20.8076 16.7849C20.7578 16.2249 21.183 15.4249 21.2886 15.1771C21.3941 14.9292 21.0115 14.0735 20.4053 14.6711C19.7991 15.2687 19.2097 15.1822 18.658 14.8899C18.1063 14.5976 17.7562 14.0696 17.8002 13.3851C17.8442 12.7005 17.6259 12.7313 17.4415 12.3102C17.2571 11.889 17.6752 11.5132 17.8368 11.3466Z" fill="#151515"/>
</g>
<path d="M39.944 12.244C39.944 13.624 39.032 14.62 36.464 14.62C33.452 14.62 32.42 13.348 32.42 11.272H33.968C33.968 12.856 34.784 13.276 36.5 13.276C37.82 13.276 38.396 12.964 38.396 12.28C38.396 11.404 37.184 11.128 35.9 10.72C34.16 10.156 32.804 9.688 32.804 8.092C32.804 6.712 33.86 5.92 35.996 5.92C38.552 5.92 39.596 7.324 39.596 8.884H38.048C38.048 7.684 37.148 7.264 35.996 7.264C35.012 7.264 34.352 7.492 34.352 8.128C34.352 8.716 34.772 8.932 36.14 9.376C37.736 9.904 39.944 10.48 39.944 12.244ZM47.692 14.5L46.816 11.548H43.384L42.508 14.5H40.948L43.504 6.04H46.684L49.252 14.5H47.692ZM43.78 10.204H46.408L45.292 6.436H44.896L43.78 10.204ZM50.697 14.5V6.04H53.757L56.985 14.104H57.381L57.105 13.096V6.04H58.641V14.5H55.581L52.365 6.436H51.969L52.245 7.444V14.5H50.697ZM68.1614 6.04L63.0494 10.276L68.1614 14.5H65.9174L62.0414 11.272V14.5H60.4934V6.04H62.0414V9.28L65.9174 6.04H68.1614ZM69.5398 14.5V6.04H75.2638V7.384H71.0878V9.592H74.6638V10.936H71.0878V13.156H75.2638V14.5H69.5398ZM32.341 17.745H33.364L34.882 25.203H35.168L36.631 17.745H38.853L40.316 25.203H40.602L42.12 17.745H43.143L41.559 25.5H39.359L37.885 18.042H37.599L36.125 25.5H33.925L32.341 17.745ZM48.7567 25.5L47.8437 22.574H44.7087L43.7957 25.5H42.7287L45.1707 17.745H47.3817L49.8237 25.5H48.7567ZM44.9947 21.65H47.5577L46.4247 18.042H46.1277L44.9947 21.65ZM51.5536 25.61C51.0916 25.621 50.8386 25.357 50.8386 24.895V17.745H51.9056V24.686L55.7776 24.576V25.5L51.5536 25.61ZM57.6122 25.61C57.1502 25.621 56.8972 25.357 56.8972 24.895V17.745H57.9642V24.686L61.8362 24.576V25.5L57.6122 25.61ZM62.9558 25.5V17.745H67.8948V18.669H64.0228V21.155H67.3448V22.079H64.0228V24.576H67.8948V25.5H62.9558ZM75.301 17.745V18.669H72.639V25.5H71.572V18.669H68.91V17.745H75.301Z" fill="white"/>
</svg>
